# xmcd
# 
# Track frame offsets:
#     150
#     17305
#     34174
#     49916
#     68806
#     82555
#     97438
#     113794
#     127857
#     145407
#     165201
#     180170
#     199357
#     217206
#     234258
#     251648
#     267470
#     285099
#     304674
#     323307
#     343163
# 
# Disc length: 4769
# 
# Revision: 1
# Processed by: cddbd v1.5.2PL0 Copyright (c) Steve Scherf et al.
# Submitted via: fre:ac v1.0.31
# 
DISCID=1c129f15
DTITLE=Petra Durst-Bennning - Solang die Welt noch schläft
DYEAR=0
DGENRE=Unbekanntes Genre
TTITLE0=Solang die Welt noch schläft CD 3
TTITLE1=Solang die Welt noch schläft CD 3
TTITLE2=Solang die Welt noch schläft CD 3
TTITLE3=Solang die Welt noch schläft CD 3
TTITLE4=Solang die Welt noch schläft CD 3
TTITLE5=Solang die Welt noch schläft CD 3
TTITLE6=Solang die Welt noch schläft CD 3
TTITLE7=Solang die Welt noch schläft CD 3
TTITLE8=Solang die Welt noch schläft CD 3
TTITLE9=Solang die Welt noch schläft CD 3
TTITLE10=Solang die Welt noch schläft CD 3
TTITLE11=Solang die Welt noch schläft CD 3
TTITLE12=Solang die Welt noch schläft CD 3
TTITLE13=Solang die Welt noch schläft CD 3
TTITLE14=Solang die Welt noch schläft CD 3
TTITLE15=Solang die Welt noch schläft CD 3
TTITLE16=Solang die Welt noch schläft CD 3
TTITLE17=Solang die Welt noch schläft CD 3
TTITLE18=Solang die Welt noch schläft CD 3
TTITLE19=Solang die Welt noch schläft CD 3
TTITLE20=Solang die Welt noch schläft CD 3
EXTD=
EXTT0=
EXTT1=
EXTT2=
EXTT3=
EXTT4=
EXTT5=
EXTT6=
EXTT7=
EXTT8=
EXTT9=
EXTT10=
EXTT11=
EXTT12=
EXTT13=
EXTT14=
EXTT15=
EXTT16=
EXTT17=
EXTT18=
EXTT19=
EXTT20=
PLAYORDER=
